<svg xmlns="http://www.w3.org/2000/svg" viewBox="365 362 539 490" width="32" height="32">
  <g transform="translate(0,1254) scale(0.1,-0.1)" fill="#3DD68C">
    <path d="M8440 8655 c-41 -8 -116 -22 -167 -29 -191 -30 -676 -122 -928 -175
-825 -175 -1360 -329 -1905 -549 -294 -119 -564 -256 -771 -393 -470 -311
-754 -701 -786 -1080 -8 -89 4 -179 23 -179 8 0 14 -4 14 -10 0 -25 17 -5 40
48 75 174 305 427 565 624 214 161 514 332 865 493 298 137 741 294 1140 405
63 17 151 42 195 55 144 43 532 137 640 155 28 5 100 20 160 33 173 39 346 74
525 107 91 16 188 34 215 40 28 5 113 19 190 30 180 27 208 35 249 71 105 92
97 258 -16 342 -35 26 -147 31 -248 12z"/>
    <path d="M8420 7803 c-1343 -202 -2420 -483 -3145 -818 -369 -170 -633 -331
-890 -541 -312 -255 -495 -579 -495 -874 0 -118 17 -189 75 -306 106 -217 344
-391 700 -512 445 -152 1000 -257 1845 -351 245 -28 671 -68 790 -76 52 -3
154 -10 225 -15 153 -12 819 -40 954 -41 106 -1 133 11 163 72 23 45 10 104
-30 140 -28 25 -38 27 -158 33 -367 18 -743 47 -1019 77 -99 11 -243 27 -320
35 -77 8 -266 33 -420 55 -1070 152 -1779 340 -2132 566 -119 76 -196 184
-209 293 -20 176 146 408 464 647 244 184 615 374 1052 540 52 19 123 46 158
60 75 28 311 107 472 156 224 69 772 207 1000 251 41 8 129 26 195 40 229 48
602 114 860 152 116 18 189 103 189 221 -1 86 -38 147 -113 186 -61 30 -75 31
-211 10z"/>
    <path d="M4824 5974 c-49 -33 -124 -105 -124 -119 0 -44 279 -217 490 -303
431 -176 791 -277 1354 -378 77 -14 142 -27 146 -29 4 -2 78 -14 166 -25 87
-12 161 -23 164 -25 4 -2 73 -11 156 -20 82 -9 196 -22 254 -30 58 -7 152 -17
210 -20 58 -4 172 -13 254 -21 82 -8 270 -19 418 -25 299 -12 298 -12 338 54
24 38 25 66 6 112 -29 68 -16 66 -511 100 -1149 80 -2536 391 -3178 711 -48
24 -92 44 -96 44 -5 0 -26 -12 -47 -26z"/>
  </g>
</svg>
